<?xml version="1.0" standalone="no"?><!DOCTYPE svg PUBLIC "-//W3C//DTD SVG 1.1//EN" "http://www.w3.org/Graphics/SVG/1.1/DTD/svg11.dtd"><svg t="1493369732967" class="icon" style="" viewBox="0 0 3117 1024" version="1.1" xmlns="http://www.w3.org/2000/svg" p-id="2372" xmlns:xlink="http://www.w3.org/1999/xlink" width="194.8125" height="64"><defs><style type="text/css"></style></defs><path d="M767.033845 362.09009l-363.305576 0 0 107.807353 257.661164 0c-12.728941 151.175262-138.503044 215.645873-257.224836 215.645873-151.892087 0-284.436133-119.510299-284.436133-287.016703 0-163.177404 126.348186-288.846165 284.769613-288.846165 122.224884 0 194.24709 77.915754 194.24709 77.915754l75.484782-78.168201s-96.886681-107.860336-273.590261-107.860336c-225.011346-0.003117-399.08449 189.905625-399.08449 395.032871 0 201.000828 163.744631 396.996348 404.819089 396.996348 212.027465 0 367.23253-145.247431 367.23253-360.033114 0-45.312686-6.578895-71.501729-6.578895-71.501729z" p-id="2373"></path><path d="M1064.640857 284.015388c-149.074653 0-255.909618 116.546384-255.909618 252.471975 0 137.935817 103.624836 256.648259 257.661164 256.648259 139.444266 0 253.684344-106.579401 253.684344-253.684344 0-168.603458-132.886876-255.43589-255.43589-255.43589zm1.482363 99.990845c73.309374 0 142.77906 59.268955 142.77906 154.771853 0 93.477088-69.173606 154.435257-143.115656 154.435257-81.244315 0-145.337813-65.069004-145.337813-155.177015 0-88.1757 63.298758-154.030095 145.67441-154.030095z" p-id="2374"></path><path d="M1621.208668 284.015388c-149.074653 0-255.909618 116.546384-255.909618 252.471975 0 137.935817 103.624836 256.648259 257.661164 256.648259 139.444266 0 253.684344-106.579401 253.684344-253.684344 0-168.603458-132.886876-255.43589-255.43589-255.43589zm1.482332 99.990845c73.309374 0 142.77906 59.268955 142.77906 154.771853 0 93.477088-69.173606 154.435257-143.115656 154.435257-81.244315 0-145.337813-65.069004-145.337813-155.177015 0-88.1757 63.298758-154.030095 145.67441-154.030095z" p-id="2375"></path><path d="M2167.117604 284.283419c-136.83253 0-244.387436 119.843779-244.387436 254.357536 0 153.222888 124.693255 254.831264 242.028147 254.831264 72.552033 0 111.129681-28.799221 139.612564-61.855758l0 50.196445c0 87.826637-53.325542 140.419771-133.815632 140.419771-77.756805 0-116.758315-57.816606-130.31254-90.625371l-97.834137 40.899537c34.706793 73.38729 104.575408 149.91926 228.957 149.91926 136.047139 0 239.737424-85.691746 239.737424-265.409106l0-457.427806-106.728999 0 0 43.121695c-32.818115-35.364402-77.697589-58.421232-137.256392-58.421232zm9.904651 99.788264c67.085464 0 135.97234 57.283662 135.97234 155.108449 0 99.432968-68.740394 154.232676-137.455856 154.232676-72.947845 0-140.824933-59.231556-140.824933-153.288337 0-97.731288 70.495057-156.052788 142.305332-156.052788z" p-id="2376"></path><path d="M2885.656684 283.675676c-129.072121 0-237.446701 102.692963-237.446701 254.223521 0 160.341271 120.797468 255.43589 249.844655 255.43589 107.704505 0 173.80823-58.923009 213.258534-111.715607l-87.998052-58.552131c-22.834926 35.439201-61.011152 70.074312-124.721305 70.074312-71.564061 0-104.469442-39.188507-124.85532-77.149063l341.333333-141.63214-17.720847-41.50728c-32.973947-81.281714-109.892379-149.161919-211.681519-149.161919zm4.446808 97.902703c46.509472 0 79.982079 24.727967 94.197029 54.375846l-227.947212 95.275383c-9.827358-73.761286 60.054346-149.65123 133.750183-149.65123z" p-id="2377"></path><path d="M2485.481373 778.222547l112.120769 0 0-750.328707-112.120769 0z" p-id="2378"></path></svg>