<?xml version="1.0" standalone="no"?><!DOCTYPE svg PUBLIC "-//W3C//DTD SVG 1.1//EN" "http://www.w3.org/Graphics/SVG/1.1/DTD/svg11.dtd"><svg t="1493371745762" class="icon" style="" viewBox="0 0 1024 1024" version="1.1" xmlns="http://www.w3.org/2000/svg" p-id="6508" xmlns:xlink="http://www.w3.org/1999/xlink" width="64" height="64"><defs><style type="text/css"></style></defs><path d="M522.33266 438.648813 1005.633782 438.648813C1010.966737 468.424611 1013.633214 496.867131 1013.633214 523.976452 1013.633214 620.414467 993.41236 706.519822 952.970612 782.292557 912.528864 858.065292 854.866028 917.283559 779.982146 959.947398 705.098263 1002.611198 619.215102 1023.943098 522.33266 1023.943098 452.55954 1023.943098 386.119516 1010.499574 323.012589 983.612486 259.905702 956.725358 205.464907 920.394463 159.690164 874.619719 113.915421 828.845016 77.584525 774.404181 50.697437 711.297294 23.810349 648.190407 10.366786 581.750384 10.366786 511.977263 10.366786 442.204103 23.810349 375.764119 50.697437 312.657192 77.584525 249.550305 113.915421 195.10947 159.690164 149.334767 205.464907 103.560024 259.905702 67.229128 323.012589 40.34204 386.119516 13.454912 452.55954 0.011388 522.33266 0.011388 655.657094 0.011388 770.093912 44.675086 865.643115 134.002441L726.319067 267.993494C671.656039 215.108131 603.660583 188.66547 522.33266 188.66547 465.003154 188.66547 412.006695 203.108943 363.343241 231.995928 314.679827 260.882874 276.12684 300.102481 247.684281 349.654747 219.241761 399.206973 205.020481 453.314479 205.020481 511.977263 205.020481 570.640007 219.241761 624.747513 247.684281 674.299739 276.12684 723.852006 314.679827 763.071612 363.343241 791.958598 412.006695 820.845544 465.003154 835.289017 522.33266 835.289017 560.996744 835.289017 596.549923 829.956062 628.992199 819.290112 661.434475 808.624122 688.09937 795.291695 708.986883 779.29275 729.874357 763.293845 748.095393 745.072809 763.649911 724.629722 779.20443 704.186674 790.648096 684.854593 797.980949 666.633597 805.313802 648.4126 810.313467 631.080417 812.979945 614.637086L522.33266 614.637086ZM522.33266 438.648813" p-id="6509"></path></svg>